# Blender v2.78 (sub 0) OBJ File: 'jetpack.blend'
# www.blender.org
mtllib jetpack.mtl
o Icosphere
v -0.025821 1.581613 -0.003091
v 0.302168 1.832171 0.235203
v -0.151099 1.832171 0.382481
v -0.431236 1.832173 -0.003091
v -0.151099 1.832171 -0.388664
v 0.302168 1.832171 -0.241386
v 0.099457 2.237592 0.382481
v -0.353809 2.237592 0.235203
v -0.353809 2.237592 -0.241386
v 0.099457 2.237592 -0.388664
v 0.379594 2.237591 -0.003091
v -0.025821 2.488150 -0.003091
v -0.099457 1.649307 0.223541
v 0.166965 1.649307 0.136974
v 0.093329 1.796581 0.363608
v 0.359751 1.796582 -0.003091
v 0.166965 1.649307 -0.143157
v -0.264118 1.649308 -0.003091
v -0.337756 1.796582 0.223541
v -0.099457 1.649307 -0.229724
v -0.337756 1.796582 -0.229724
v 0.093329 1.796581 -0.369791
v 0.405264 2.034882 0.136974
v 0.405264 2.034882 -0.143157
v -0.025821 2.034882 0.450177
v 0.240604 2.034882 0.363610
v -0.456906 2.034882 0.136974
v -0.292246 2.034882 0.363610
v -0.292246 2.034882 -0.369793
v -0.456906 2.034882 -0.143157
v 0.240604 2.034882 -0.369793
v -0.025821 2.034882 -0.456360
v 0.286114 2.273181 0.223541
v -0.144971 2.273182 0.363608
v -0.411393 2.273181 -0.003091
v -0.144971 2.273182 -0.369791
v 0.286114 2.273181 -0.229724
v 0.047815 2.420457 0.223541
v 0.212476 2.420455 -0.003091
v -0.218606 2.420457 0.136974
v -0.218606 2.420457 -0.143157
v 0.047815 2.420457 -0.229724
vn 0.1024 -0.9435 0.3151
vn 0.7002 -0.6617 0.2680
vn -0.2680 -0.9435 0.1947
vn -0.2680 -0.9435 -0.1947
vn 0.1024 -0.9435 -0.3151
vn 0.9050 -0.3304 0.2680
vn 0.0247 -0.3304 0.9435
vn -0.8897 -0.3304 0.3151
vn -0.5746 -0.3304 -0.7488
vn 0.5346 -0.3304 -0.7779
vn 0.8026 -0.1256 0.5831
vn -0.3066 -0.1256 0.9435
vn -0.9921 -0.1256 0.0000
vn -0.3066 -0.1256 -0.9435
vn 0.8026 -0.1256 -0.5831
vn 0.4089 0.6617 0.6284
vn -0.4713 0.6617 0.5831
vn -0.7002 0.6617 -0.2680
vn 0.0385 0.6617 -0.7488
vn 0.7240 0.6617 -0.1947
vn 0.2680 0.9435 -0.1947
vn 0.4911 0.7947 -0.3568
vn 0.4089 0.6617 -0.6284
vn -0.1024 0.9435 -0.3151
vn -0.1876 0.7947 -0.5773
vn -0.4713 0.6617 -0.5831
vn -0.3313 0.9435 0.0000
vn -0.6071 0.7947 0.0000
vn -0.7002 0.6617 0.2680
vn -0.1024 0.9435 0.3151
vn -0.1876 0.7947 0.5773
vn 0.0385 0.6617 0.7488
vn 0.2680 0.9435 0.1947
vn 0.4911 0.7947 0.3568
vn 0.7240 0.6617 0.1947
vn 0.8897 0.3304 -0.3151
vn 0.7947 0.1876 -0.5773
vn 0.5746 0.3304 -0.7488
vn -0.0247 0.3304 -0.9435
vn -0.3035 0.1876 -0.9342
vn -0.5346 0.3304 -0.7779
vn -0.9050 0.3304 -0.2680
vn -0.9822 0.1876 0.0000
vn -0.9050 0.3304 0.2680
vn -0.5346 0.3304 0.7779
vn -0.3035 0.1876 0.9342
vn -0.0247 0.3304 0.9435
vn 0.5746 0.3304 0.7488
vn 0.7947 0.1876 0.5773
vn 0.8897 0.3304 0.3151
vn 0.3066 0.1256 -0.9435
vn 0.3035 -0.1876 -0.9342
vn 0.0247 -0.3304 -0.9435
vn -0.8026 0.1256 -0.5831
vn -0.7947 -0.1876 -0.5773
vn -0.8897 -0.3304 -0.3151
vn -0.8026 0.1256 0.5831
vn -0.7947 -0.1876 0.5773
vn -0.5746 -0.3304 0.7488
vn 0.3066 0.1256 0.9435
vn 0.3035 -0.1876 0.9342
vn 0.5346 -0.3304 0.7779
vn 0.9921 0.1256 0.0000
vn 0.9822 -0.1876 0.0000
vn 0.9050 -0.3304 -0.2680
vn 0.4713 -0.6617 -0.5831
vn 0.1876 -0.7947 -0.5773
vn -0.0385 -0.6617 -0.7488
vn -0.4089 -0.6617 -0.6284
vn -0.4911 -0.7947 -0.3568
vn -0.7240 -0.6617 -0.1947
vn -0.7240 -0.6617 0.1947
vn -0.4911 -0.7947 0.3568
vn -0.4089 -0.6617 0.6284
vn 0.7002 -0.6617 -0.2680
vn 0.6071 -0.7947 0.0000
vn 0.3313 -0.9435 0.0000
vn -0.0385 -0.6617 0.7488
vn 0.1876 -0.7947 0.5773
vn 0.4713 -0.6617 0.5831
usemtl None
s off
f 1//1 14//1 13//1
f 2//2 14//2 16//2
f 1//3 13//3 18//3
f 1//4 18//4 20//4
f 1//5 20//5 17//5
f 2//6 16//6 23//6
f 3//7 15//7 25//7
f 4//8 19//8 27//8
f 5//9 21//9 29//9
f 6//10 22//10 31//10
f 2//11 23//11 26//11
f 3//12 25//12 28//12
f 4//13 27//13 30//13
f 5//14 29//14 32//14
f 6//15 31//15 24//15
f 7//16 33//16 38//16
f 8//17 34//17 40//17
f 9//18 35//18 41//18
f 10//19 36//19 42//19
f 11//20 37//20 39//20
f 39//21 42//21 12//21
f 39//22 37//22 42//22
f 37//23 10//23 42//23
f 42//24 41//24 12//24
f 42//25 36//25 41//25
f 36//26 9//26 41//26
f 41//27 40//27 12//27
f 41//28 35//28 40//28
f 35//29 8//29 40//29
f 40//30 38//30 12//30
f 40//31 34//31 38//31
f 34//32 7//32 38//32
f 38//33 39//33 12//33
f 38//34 33//34 39//34
f 33//35 11//35 39//35
f 24//36 37//36 11//36
f 24//37 31//37 37//37
f 31//38 10//38 37//38
f 32//39 36//39 10//39
f 32//40 29//40 36//40
f 29//41 9//41 36//41
f 30//42 35//42 9//42
f 30//43 27//43 35//43
f 27//44 8//44 35//44
f 28//45 34//45 8//45
f 28//46 25//46 34//46
f 25//47 7//47 34//47
f 26//48 33//48 7//48
f 26//49 23//49 33//49
f 23//50 11//50 33//50
f 31//51 32//51 10//51
f 31//52 22//52 32//52
f 22//53 5//53 32//53
f 29//54 30//54 9//54
f 29//55 21//55 30//55
f 21//56 4//56 30//56
f 27//57 28//57 8//57
f 27//58 19//58 28//58
f 19//59 3//59 28//59
f 25//60 26//60 7//60
f 25//61 15//61 26//61
f 15//62 2//62 26//62
f 23//63 24//63 11//63
f 23//64 16//64 24//64
f 16//65 6//65 24//65
f 17//66 22//66 6//66
f 17//67 20//67 22//67
f 20//68 5//68 22//68
f 20//69 21//69 5//69
f 20//70 18//70 21//70
f 18//71 4//71 21//71
f 18//72 19//72 4//72
f 18//73 13//73 19//73
f 13//74 3//74 19//74
f 16//75 17//75 6//75
f 16//76 14//76 17//76
f 14//77 1//77 17//77
f 13//78 15//78 3//78
f 13//79 14//79 15//79
f 14//80 2//80 15//80
o Cylinder
v 0.000000 0.000003 -0.237346
v 0.000000 1.762413 -0.378095
v 0.046304 0.000003 -0.232786
v 0.073763 1.762413 -0.370830
v 0.090828 0.000003 -0.219279
v 0.144691 1.762413 -0.349314
v 0.131862 0.000003 -0.197346
v 0.210058 1.762413 -0.314374
v 0.167829 0.000003 -0.167829
v 0.267353 1.762413 -0.267353
v 0.197346 0.000003 -0.131862
v 0.314374 1.762413 -0.210058
v 0.219279 0.000003 -0.090828
v 0.349314 1.762413 -0.144691
v 0.232786 0.000003 -0.046304
v 0.370830 1.762413 -0.073763
v 0.237346 0.000003 -0.000000
v 0.378095 1.762413 -0.000000
v 0.232786 0.000003 0.046304
v 0.370830 1.762413 0.073763
v 0.219279 0.000003 0.090828
v 0.349314 1.762413 0.144690
v 0.197346 0.000003 0.131862
v 0.314374 1.762413 0.210058
v 0.167829 0.000003 0.167829
v 0.267353 1.762413 0.267353
v 0.131862 0.000003 0.197346
v 0.210058 1.762413 0.314374
v 0.090828 0.000003 0.219279
v 0.144690 1.762413 0.349314
v 0.046304 0.000003 0.232785
v 0.073763 1.762413 0.370830
v -0.000000 0.000003 0.237346
v -0.000000 1.762413 0.378095
v -0.046304 0.000003 0.232785
v -0.073763 1.762413 0.370830
v -0.090828 0.000003 0.219279
v -0.144691 1.762413 0.349314
v -0.131863 0.000003 0.197346
v -0.210058 1.762413 0.314374
v -0.167829 0.000003 0.167829
v -0.267353 1.762413 0.267353
v -0.197346 0.000003 0.131862
v -0.314374 1.762413 0.210058
v -0.219279 0.000003 0.090828
v -0.349314 1.762413 0.144690
v -0.232786 0.000003 0.046304
v -0.370830 1.762413 0.073762
v -0.237346 0.000003 -0.000000
v -0.378095 1.762413 -0.000000
v -0.232785 0.000003 -0.046304
v -0.370830 1.762413 -0.073763
v -0.219279 0.000003 -0.090829
v -0.349314 1.762413 -0.144691
v -0.197346 0.000003 -0.131863
v -0.314374 1.762413 -0.210058
v -0.167829 0.000003 -0.167829
v -0.267353 1.762413 -0.267354
v -0.131862 0.000003 -0.197346
v -0.210058 1.762413 -0.314374
v -0.090828 0.000003 -0.219279
v -0.144690 1.762413 -0.349314
v -0.046304 0.000003 -0.232786
v -0.073762 1.762413 -0.370830
v 0.000000 0.216604 -0.378095
v 0.073763 0.216604 -0.370830
v 0.144691 0.216604 -0.349314
v 0.210058 0.216604 -0.314374
v 0.267353 0.216604 -0.267353
v 0.314374 0.216604 -0.210058
v 0.349314 0.216604 -0.144691
v 0.370830 0.216604 -0.073763
v 0.378095 0.216604 -0.000000
v 0.370830 0.216604 0.073763
v 0.349314 0.216604 0.144690
v 0.314374 0.216604 0.210058
v 0.267353 0.216604 0.267353
v 0.210058 0.216604 0.314374
v 0.144690 0.216604 0.349314
v 0.073763 0.216604 0.370830
v -0.000000 0.216604 0.378095
v -0.073763 0.216604 0.370830
v -0.144691 0.216604 0.349314
v -0.210058 0.216604 0.314374
v -0.267353 0.216604 0.267353
v -0.314374 0.216604 0.210058
v -0.349314 0.216604 0.144690
v -0.370830 0.216604 0.073762
v -0.378095 0.216604 -0.000000
v -0.370830 0.216604 -0.073763
v -0.349314 0.216604 -0.144691
v -0.314374 0.216604 -0.210058
v -0.267353 0.216604 -0.267354
v -0.210058 0.216604 -0.314374
v -0.144690 0.216604 -0.349314
v -0.073762 0.216604 -0.370830
vn 0.0980 0.0000 -0.9952
vn 0.2903 0.0000 -0.9569
vn 0.4714 0.0000 -0.8819
vn 0.6344 0.0000 -0.7730
vn 0.7730 0.0000 -0.6344
vn 0.8819 0.0000 -0.4714
vn 0.9569 0.0000 -0.2903
vn 0.9952 0.0000 -0.0980
vn 0.9952 0.0000 0.0980
vn 0.9569 0.0000 0.2903
vn 0.8819 0.0000 0.4714
vn 0.7730 0.0000 0.6344
vn 0.6344 0.0000 0.7730
vn 0.4714 0.0000 0.8819
vn 0.2903 0.0000 0.9569
vn 0.0980 0.0000 0.9952
vn -0.0980 0.0000 0.9952
vn -0.2903 0.0000 0.9569
vn -0.4714 0.0000 0.8819
vn -0.6344 0.0000 0.7730
vn -0.7730 0.0000 0.6344
vn -0.8819 0.0000 0.4714
vn -0.9569 0.0000 0.2903
vn -0.9952 0.0000 0.0980
vn -0.9952 0.0000 -0.0980
vn -0.9569 0.0000 -0.2903
vn -0.8819 0.0000 -0.4714
vn -0.7730 0.0000 -0.6344
vn -0.6344 0.0000 -0.7730
vn -0.4714 0.0000 -0.8819
vn 0.0000 1.0000 -0.0000
vn -0.2903 0.0000 -0.9569
vn -0.0980 0.0000 -0.9952
vn 0.0000 -1.0000 -0.0000
vn -0.0823 -0.5430 -0.8357
vn -0.2438 -0.5430 -0.8036
vn -0.3958 -0.5430 -0.7406
vn -0.5327 -0.5430 -0.6491
vn -0.6491 -0.5430 -0.5327
vn -0.7406 -0.5430 -0.3958
vn -0.8036 -0.5430 -0.2438
vn -0.8357 -0.5430 -0.0823
vn -0.8357 -0.5430 0.0823
vn -0.8036 -0.5430 0.2438
vn -0.7406 -0.5430 0.3958
vn -0.6491 -0.5430 0.5327
vn -0.5327 -0.5430 0.6491
vn -0.3958 -0.5430 0.7406
vn -0.2438 -0.5430 0.8036
vn -0.0823 -0.5430 0.8357
vn 0.0823 -0.5430 0.8357
vn 0.2438 -0.5430 0.8036
vn 0.3958 -0.5430 0.7406
vn 0.5327 -0.5430 0.6491
vn 0.6491 -0.5430 0.5327
vn 0.7406 -0.5430 0.3958
vn 0.8036 -0.5430 0.2438
vn 0.8357 -0.5430 0.0823
vn 0.8357 -0.5430 -0.0823
vn 0.8036 -0.5430 -0.2438
vn 0.7406 -0.5430 -0.3958
vn 0.6491 -0.5430 -0.5327
vn 0.5327 -0.5430 -0.6491
vn 0.3958 -0.5430 -0.7406
vn 0.2438 -0.5430 -0.8036
vn 0.0823 -0.5430 -0.8357
usemtl None
s off
f 107//81 44//81 46//81 108//81
f 108//82 46//82 48//82 109//82
f 109//83 48//83 50//83 110//83
f 110//84 50//84 52//84 111//84
f 111//85 52//85 54//85 112//85
f 112//86 54//86 56//86 113//86
f 113//87 56//87 58//87 114//87
f 114//88 58//88 60//88 115//88
f 115//89 60//89 62//89 116//89
f 116//90 62//90 64//90 117//90
f 117//91 64//91 66//91 118//91
f 118//92 66//92 68//92 119//92
f 119//93 68//93 70//93 120//93
f 120//94 70//94 72//94 121//94
f 121//95 72//95 74//95 122//95
f 122//96 74//96 76//96 123//96
f 123//97 76//97 78//97 124//97
f 124//98 78//98 80//98 125//98
f 125//99 80//99 82//99 126//99
f 126//100 82//100 84//100 127//100
f 127//101 84//101 86//101 128//101
f 128//102 86//102 88//102 129//102
f 129//103 88//103 90//103 130//103
f 130//104 90//104 92//104 131//104
f 131//105 92//105 94//105 132//105
f 132//106 94//106 96//106 133//106
f 133//107 96//107 98//107 134//107
f 134//108 98//108 100//108 135//108
f 135//109 100//109 102//109 136//109
f 136//110 102//110 104//110 137//110
f 46//111 44//111 106//111 104//111 102//111 100//111 98//111 96//111 94//111 92//111 90//111 88//111 86//111 84//111 82//111 80//111 78//111 76//111 74//111 72//111 70//111 68//111 66//111 64//111 62//111 60//111 58//111 56//111 54//111 52//111 50//111 48//111
f 137//112 104//112 106//112 138//112
f 138//113 106//113 44//113 107//113
f 43//114 45//114 47//114 49//114 51//114 53//114 55//114 57//114 59//114 61//114 63//114 65//114 67//114 69//114 71//114 73//114 75//114 77//114 79//114 81//114 83//114 85//114 87//114 89//114 91//114 93//114 95//114 97//114 99//114 101//114 103//114 105//114
f 105//115 138//115 107//115 43//115
f 103//116 137//116 138//116 105//116
f 101//117 136//117 137//117 103//117
f 99//118 135//118 136//118 101//118
f 97//119 134//119 135//119 99//119
f 95//120 133//120 134//120 97//120
f 93//121 132//121 133//121 95//121
f 91//122 131//122 132//122 93//122
f 89//123 130//123 131//123 91//123
f 87//124 129//124 130//124 89//124
f 85//125 128//125 129//125 87//125
f 83//126 127//126 128//126 85//126
f 81//127 126//127 127//127 83//127
f 79//128 125//128 126//128 81//128
f 77//129 124//129 125//129 79//129
f 75//130 123//130 124//130 77//130
f 73//131 122//131 123//131 75//131
f 71//132 121//132 122//132 73//132
f 69//133 120//133 121//133 71//133
f 67//134 119//134 120//134 69//134
f 65//135 118//135 119//135 67//135
f 63//136 117//136 118//136 65//136
f 61//137 116//137 117//137 63//137
f 59//138 115//138 116//138 61//138
f 57//139 114//139 115//139 59//139
f 55//140 113//140 114//140 57//140
f 53//141 112//141 113//141 55//141
f 51//142 111//142 112//142 53//142
f 49//143 110//143 111//143 51//143
f 47//144 109//144 110//144 49//144
f 45//145 108//145 109//145 47//145
f 43//146 107//146 108//146 45//146
o Cube_Cube.001
v -0.357277 0.848841 0.602334
v -0.357277 0.910627 0.602334
v -0.357277 0.848841 -0.003893
v -0.357277 0.910627 -0.003893
v -0.295490 0.848841 0.602334
v -0.295490 0.910627 0.602334
v -0.295490 0.848841 -0.003893
v -0.295490 0.910627 -0.003893
v 0.357277 0.848840 0.602334
v 0.357277 0.910627 0.602334
v 0.357277 0.848840 -0.003893
v 0.357277 0.910627 -0.003893
v 0.295490 0.848840 0.602334
v 0.295490 0.910627 0.602334
v 0.295490 0.848840 -0.003893
v 0.295490 0.910627 -0.003893
vn -1.0000 0.0000 0.0000
vn 0.0000 0.0000 -1.0000
vn 1.0000 0.0000 0.0000
vn 0.0000 0.0000 1.0000
vn 0.0000 -1.0000 0.0000
vn 0.0000 1.0000 0.0000
usemtl None
s off
f 139//147 140//147 142//147 141//147
f 141//148 142//148 146//148 145//148
f 145//149 146//149 144//149 143//149
f 143//150 144//150 140//150 139//150
f 141//151 145//151 143//151 139//151
f 146//152 142//152 140//152 144//152
f 147//149 149//149 150//149 148//149
f 149//148 153//148 154//148 150//148
f 153//147 151//147 152//147 154//147
f 151//150 147//150 148//150 152//150
f 149//151 147//151 151//151 153//151
f 154//152 152//152 148//152 150//152
o Cylinder.001
v -0.072212 0.597163 -0.363209
v -0.072212 1.628847 -0.363209
v -0.186009 0.597163 -0.319981
v -0.186009 1.628847 -0.319981
v -0.200560 0.597163 -0.371334
v -0.200560 1.628847 -0.371334
v -0.204234 0.597163 -0.418159
v -0.204234 1.628847 -0.418159
v -0.196471 0.597163 -0.453329
v -0.196471 1.628847 -0.453329
v -0.178453 0.597163 -0.471488
v -0.178453 1.628847 -0.471488
v -0.152923 0.597163 -0.469871
v -0.152923 1.628847 -0.469871
v -0.123767 0.597163 -0.448726
v -0.123767 1.628847 -0.448726
v -0.095425 0.597163 -0.411271
v -0.095425 1.628847 -0.411271
v 0.072212 0.597163 -0.363209
v 0.072212 1.628847 -0.363209
v 0.186009 0.597163 -0.319981
v 0.186009 1.628847 -0.319981
v 0.200560 0.597163 -0.371334
v 0.200560 1.628847 -0.371334
v 0.204234 0.597163 -0.418159
v 0.204234 1.628847 -0.418159
v 0.196471 0.597163 -0.453329
v 0.196471 1.628847 -0.453329
v 0.178453 0.597163 -0.471488
v 0.178453 1.628847 -0.471488
v 0.152923 0.597163 -0.469871
v 0.152923 1.628847 -0.469871
v 0.123767 0.597163 -0.448726
v 0.123767 1.628847 -0.448726
v 0.095425 0.597163 -0.411271
v 0.095425 1.628847 -0.411271
vn 0.3551 0.0000 0.9348
vn 0.0000 -1.0000 0.0000
vn 0.0000 1.0000 0.0000
vn -0.9621 0.0000 0.2726
vn -0.9969 0.0000 0.0782
vn -0.9765 0.0000 -0.2155
vn -0.7099 0.0000 -0.7044
vn 0.0632 0.0000 -0.9980
vn 0.5871 0.0000 -0.8095
vn 0.7974 0.0000 -0.6034
vn 0.9005 0.0000 -0.4349
vn -0.3551 0.0000 0.9348
vn 0.9621 0.0000 0.2726
vn 0.9969 0.0000 0.0782
vn 0.9765 0.0000 -0.2155
vn 0.7099 0.0000 -0.7044
vn -0.0632 0.0000 -0.9980
vn -0.5871 0.0000 -0.8095
vn -0.7974 0.0000 -0.6034
vn -0.9005 0.0000 -0.4349
usemtl None
s off
f 155//153 156//153 158//153 157//153
f 155//154 157//154 159//154 161//154 163//154 165//154 167//154 169//154 171//154
f 158//155 156//155 172//155 170//155 168//155 166//155 164//155 162//155 160//155
f 157//156 158//156 160//156 159//156
f 159//157 160//157 162//157 161//157
f 161//158 162//158 164//158 163//158
f 163//159 164//159 166//159 165//159
f 165//160 166//160 168//160 167//160
f 167//161 168//161 170//161 169//161
f 169//162 170//162 172//162 171//162
f 171//163 172//163 156//163 155//163
f 173//164 175//164 176//164 174//164
f 173//154 189//154 187//154 185//154 183//154 181//154 179//154 177//154 175//154
f 176//155 178//155 180//155 182//155 184//155 186//155 188//155 190//155 174//155
f 175//165 177//165 178//165 176//165
f 177//166 179//166 180//166 178//166
f 179//167 181//167 182//167 180//167
f 181//168 183//168 184//168 182//168
f 183//169 185//169 186//169 184//169
f 185//170 187//170 188//170 186//170
f 187//171 189//171 190//171 188//171
f 189//172 173//172 174//172 190//172
